<?xml version="1.0" standalone="no"?><!DOCTYPE svg PUBLIC "-//W3C//DTD SVG 1.1//EN" "http://www.w3.org/Graphics/SVG/1.1/DTD/svg11.dtd"><svg t="1579135642411" class="icon" viewBox="0 0 1024 1024" version="1.1" xmlns="http://www.w3.org/2000/svg" p-id="3765" xmlns:xlink="http://www.w3.org/1999/xlink" width="20" height="20"><defs><style type="text/css"></style></defs><path d="M672.852735 952.190743c-173.060309 0-307.343619-177.368864-313.088359-184.549789a36.622721 36.622721 0 0 1 0-43.085554c5.744741-7.899018 143.618513-185.267882 313.088359-185.267882s307.343619 178.805049 313.088359 185.267882a36.622721 36.622721 0 0 1 0 43.085554c-5.744741 7.180926-140.02805 184.54979-313.088359 184.549789z m-236.970547-206.092566a359.046283 359.046283 0 0 0 236.970547 134.28331 364.072931 364.072931 0 0 0 237.688639-134.28331 359.046283 359.046283 0 0 0-237.688639-135.001403 359.046283 359.046283 0 0 0-236.970547 135.001403z" fill="#333333" p-id="3766"></path><path d="M672.852735 846.631136a101.251052 101.251052 0 1 1 101.251052-100.532959 101.251052 101.251052 0 0 1-101.251052 100.532959z m0-129.974755a29.441795 29.441795 0 1 0 0 58.165498 29.441795 29.441795 0 1 0 0-58.165498z" fill="#333333" p-id="3767"></path><path d="M499.074334 1024H143.618513A112.740533 112.740533 0 0 1 30.87798 911.259467V112.740533A112.740533 112.740533 0 0 1 143.618513 0h395.669005a34.468443 34.468443 0 0 1 24.415147 10.053296L820.779804 252.768583a35.904628 35.904628 0 0 1 11.489481 25.851333v193.1669a35.904628 35.904628 0 0 1-35.904629 35.904629 35.904628 35.904628 0 0 1-35.904628-35.904629V294.417952L524.925666 71.809257H143.618513a40.213184 40.213184 0 0 0-40.931276 40.931276v798.518934a40.931276 40.931276 0 0 0 40.931276 40.931276h355.455821a35.904628 35.904628 0 0 1 35.904628 35.904629 36.622721 36.622721 0 0 1-35.904628 35.904628z" fill="#333333" p-id="3768"></path><path d="M526.361851 339.657784a35.904628 35.904628 0 0 1-35.904628-35.904628V43.085554a35.904628 35.904628 0 0 1 35.904628-35.904628 35.904628 35.904628 0 0 1 35.904629 35.904628v260.667602a35.904628 35.904628 0 0 1-35.904629 35.904628z" fill="#333333" p-id="3769"></path><path d="M783.43899 339.657784H526.361851a35.904628 35.904628 0 0 1-35.904628-35.904628 35.904628 35.904628 0 0 1 35.904628-35.904629h257.077139a35.904628 35.904628 0 0 1 35.904629 35.904629 35.904628 35.904628 0 0 1-35.904629 35.904628z" fill="#333333" p-id="3770"></path></svg>