<?xml version="1.0" standalone="no"?><!DOCTYPE svg PUBLIC "-//W3C//DTD SVG 1.1//EN" "http://www.w3.org/Graphics/SVG/1.1/DTD/svg11.dtd"><svg t="1578731873107" class="icon" viewBox="0 0 1024 1024" version="1.1" xmlns="http://www.w3.org/2000/svg" p-id="6240" xmlns:xlink="http://www.w3.org/1999/xlink" width="20" height="20"><defs><style type="text/css"></style></defs><path d="M512 0a512 512 0 1 0 512 512 512 512 0 0 0-512-512z m0 870.4a73.142857 73.142857 0 1 1 73.142857-73.142857 73.142857 73.142857 0 0 1-73.142857 73.142857z m199.68-419.108571a488.594286 488.594286 0 0 1-94.354286 95.085714 178.468571 178.468571 0 0 0-46.811428 50.468571 168.228571 168.228571 0 0 0-8.045715 68.022857H454.948571V636.342857a187.977143 187.977143 0 0 1 17.554286-85.577143 261.851429 261.851429 0 0 1 68.754286-73.142857 522.971429 522.971429 0 0 0 62.171428-54.857143 73.142857 73.142857 0 0 0 15.36-45.348571 76.8 76.8 0 0 0-27.794285-59.245714 108.251429 108.251429 0 0 0-73.142857-24.868572 113.371429 113.371429 0 0 0-73.142858 25.6 155.062857 155.062857 0 0 0-41.691428 78.262857c-3.657143 21.942857-109.714286 31.451429-108.982857-13.165714A183.588571 183.588571 0 0 1 358.4 256 228.205714 228.205714 0 0 1 512 199.68a236.251429 236.251429 0 0 1 162.377143 53.394286 160.914286 160.914286 0 0 1 57.051428 124.342857 135.314286 135.314286 0 0 1-19.748571 73.874286z" fill="#9fa3b0" p-id="6241"></path></svg>