<?xml version="1.0" standalone="no"?><!DOCTYPE svg PUBLIC "-//W3C//DTD SVG 1.1//EN" "http://www.w3.org/Graphics/SVG/1.1/DTD/svg11.dtd"><svg t="1578920260245" class="icon" viewBox="0 0 1024 1024" version="1.1" xmlns="http://www.w3.org/2000/svg" p-id="2260" xmlns:xlink="http://www.w3.org/1999/xlink" width="20" height="20"><defs><style type="text/css"></style></defs><path d="M511.978511 61.559031c-247.304456 0-447.785489 200.480011-447.785489 447.785489s200.480011 447.785489 447.785489 447.785489 447.785489-200.480011 447.785489-447.785489S759.283989 61.559031 511.978511 61.559031zM475.04432 734.373647c-7.345292 7.163143-16.946974 10.729365-26.547633 10.729365-9.625218 0-19.225877-3.566222-26.544563-10.729365L201.24442 518.992251c-14.659885-14.322194-14.659885-37.509289 0-51.831482 14.662955-14.322194 38.428218-14.322194 53.091172 0l194.160071 189.467189L827.060629 287.271726c14.662955-14.322194 38.428218-14.322194 53.091172 0 14.663978 14.295588 14.663978 37.482683 0 51.804876L475.04432 734.373647z" fill="orange" p-id="2261"></path></svg>