<?xml version="1.0" standalone="no"?><!DOCTYPE svg PUBLIC "-//W3C//DTD SVG 1.1//EN" "http://www.w3.org/Graphics/SVG/1.1/DTD/svg11.dtd"><svg t="1579005363222" class="icon" viewBox="0 0 1024 1024" version="1.1" xmlns="http://www.w3.org/2000/svg" p-id="3616" xmlns:xlink="http://www.w3.org/1999/xlink" width="20" height="20"><defs><style type="text/css"></style></defs><path d="M544 736a32 32 0 0 1-64 0V288a32 32 0 0 1 64 0z" p-id="3617" fill="#ffffff"></path><path d="M800 832v-160a32 32 0 0 1 64 0v192a32 32 0 0 1-32 32H192a32 32 0 0 1-32-32v-192a32 32 0 0 1 64 0v160zM496 271.36l-152.32 166.4a32 32 0 1 1-47.36-43.52l176-192a32 32 0 0 1 47.36 0l176 192a32 32 0 0 1-47.36 43.52z" p-id="3618" fill="#ffffff"></path></svg>