<?xml version="1.0" encoding="utf-8"?>
<!-- Generator: Adobe Illustrator 23.0.0, SVG Export Plug-In . SVG Version: 6.00 Build 0)  -->
<svg version="1.1" id="图层_1" xmlns="http://www.w3.org/2000/svg" xmlns:xlink="http://www.w3.org/1999/xlink" x="0px" y="0px"
	 viewBox="0 0 16 16" style="enable-background:new 0 0 16 16;" xml:space="preserve">
<style type="text/css">
	.st0{fill:#CDCDCD;}
</style>
<path class="st0" d="M1.5,3.6c0,0.6,0.5,1.1,1.1,1.1s1.1-0.5,1.1-1.1S3.1,2.6,2.5,2.6S1.5,3.1,1.5,3.6z"/>
<path class="st0" d="M4.7,2.9h10.1v1.4H4.7V2.9z"/>
<path class="st0" d="M1.5,8C1.5,8.6,2,9,2.5,9S3.6,8.6,3.6,8S3.1,6.9,2.5,6.9C2,6.9,1.5,7.4,1.5,8L1.5,8z"/>
<path class="st0" d="M4.7,7.3h10.1v1.4H4.7V7.3z"/>
<path class="st0" d="M1.5,12.3c0,0.6,0.5,1.1,1.1,1.1s1.1-0.5,1.1-1.1c0-0.6-0.5-1.1-1.1-1.1S1.5,11.8,1.5,12.3L1.5,12.3z"/>
<path class="st0" d="M4.7,11.7h10.1V13H4.7V11.7z"/>
</svg>
