<?xml version="1.0" encoding="utf-8"?>
<!-- Generator: Adobe Illustrator 23.0.0, SVG Export Plug-In . SVG Version: 6.00 Build 0)  -->
<svg version="1.1" id="图层_1" xmlns="http://www.w3.org/2000/svg" xmlns:xlink="http://www.w3.org/1999/xlink" x="0px" y="0px"
	 viewBox="0 0 20 20" style="enable-background:new 0 0 20 20;" xml:space="preserve">
<style type="text/css">
	.st0{fill:#00D7C6;}
</style>
<path class="st0" d="M14.4,18.4c-0.3,0-0.5-0.1-0.7-0.2l-3.5-1.8c-0.1-0.1-0.2-0.1-0.3,0l-3.5,1.8c-0.5,0.3-1.2,0.2-1.7-0.1
	c-0.5-0.4-0.7-1-0.6-1.6l0.7-3.9c0-0.1,0-0.2-0.1-0.3L1.7,9.6C1.3,9.1,1.1,8.5,1.3,7.9s0.7-1,1.3-1.1l3.9-0.6c0.1,0,0.2-0.1,0.2-0.2
	l1.8-3.5C8.8,2,9.4,1.6,10,1.6c0,0,0,0,0,0c0.6,0,1.2,0.3,1.4,0.9l1.8,3.5c0,0.1,0.1,0.2,0.2,0.2l3.9,0.6c0.6,0.1,1.1,0.5,1.3,1.1
	c0.2,0.6,0,1.2-0.4,1.6l-2.8,2.8c-0.1,0.1-0.1,0.2-0.1,0.3l0.7,3.9c0.1,0.6-0.1,1.2-0.6,1.6C15.1,18.3,14.7,18.4,14.4,18.4z"/>
</svg>
