<?xml version="1.0" standalone="no"?><!DOCTYPE svg PUBLIC "-//W3C//DTD SVG 1.1//EN" "http://www.w3.org/Graphics/SVG/1.1/DTD/svg11.dtd"><svg t="1579072432393" class="icon" viewBox="0 0 1027 1024" version="1.1" xmlns="http://www.w3.org/2000/svg" p-id="2113" width="18.052734375" height="18" xmlns:xlink="http://www.w3.org/1999/xlink"><defs><style type="text/css"></style></defs><path d="M855.04512 227.32288h-168.96V156.8c0-54.35904-50.44224-98.43712-112.63488-98.43712h-112.64c-61.70624 0-112.64 44.07296-112.64 98.43712v70.51776H179.712c-61.70624 0-112.64 50.44736-112.64 112.64V846.336c0 61.70624 50.44224 112.63488 112.64 112.63488h675.33312c61.70112 0 112.63488-50.44224 112.63488-112.63488V339.95776c0-62.19264-50.44224-112.63488-112.63488-112.63488zM398.61248 147.00544c0-23.01952 32.32256-42.11712 62.68928-42.11712h112.64c30.3616 0 62.68416 19.58912 62.68416 42.11712v79.82592H398.61248V147.00544zM918.2208 846.34112c0 31.33952-31.83616 62.67904-62.68928 62.67904h-675.328c-31.34464 0-62.68928-31.83104-62.68928-62.67904V502.54848h287.96416v62.68416c0 31.33952 25.46688 56.32 56.32 56.32h112.64c31.33952 0 56.32-25.46688 56.32-56.32V502.54848h287.95904l-0.49664 343.79264z m-469.65248-268.86144V383.54432h138.10688v194.42688l-138.10688-0.49152z m469.65248-119.00416h-287.96416V396.27776c0-31.34464-25.46176-56.32-56.31488-56.32h-112.64c-31.34464 0-56.8064 24.97536-56.8064 56.32v62.68416H116.53632V339.95776c0-31.34464 31.83104-62.68416 62.68416-62.68416h675.82464c31.33952 0 62.67904 31.83616 62.67904 62.68416l0.49664 118.51776z" p-id="2114" fill="#00d7c6"></path></svg>