<?xml version="1.0" encoding="utf-8"?>
<!-- Generator: Adobe Illustrator 23.0.0, SVG Export Plug-In . SVG Version: 6.00 Build 0)  -->
<svg version="1.1" id="图层_1" xmlns="http://www.w3.org/2000/svg" xmlns:xlink="http://www.w3.org/1999/xlink" x="0px" y="0px"
	 viewBox="0 0 16 16" style="enable-background:new 0 0 16 16;" xml:space="preserve">
<style type="text/css">
	.st0{fill:#CDCDCD;}
</style>
<path class="st0" d="M5.1,2.2c-0.7,0-1.3,0.1-1.9,0.3v6.4c0.6-0.1,1.3-0.2,1.9-0.2c0.5,0,0.9,0,1.4,0.2c0.5,0.1,1,0.3,1.6,0.5
	c0.1,0,0.2,0.1,0.4,0.1C8.8,9.5,8.9,9.5,9,9.6c0.1,0,0.2,0.1,0.4,0.1C9.7,9.7,9.8,9.8,10,9.8c0.1,0,0.3,0,0.4,0.1c0.2,0,0.3,0,0.5,0
	c0.7,0,1.3-0.1,1.9-0.3V3.3c-0.6,0.1-1.3,0.2-1.9,0.2c-0.5,0-0.9-0.1-1.4-0.2C9,3.2,8.4,3.1,7.8,2.9L7.4,2.7c-0.2,0-0.3-0.1-0.5-0.2
	c-0.1,0-0.2-0.1-0.4-0.1C6.3,2.4,6.1,2.3,6,2.3c-0.1,0-0.3,0-0.4-0.1C5.4,2.2,5.3,2.2,5.1,2.2z M5.1,0.9c0.4,0,0.7,0,1.1,0.1
	S7,1.2,7.4,1.4l1.1,0.4c0,0,0.4,0.1,1.2,0.3c0.3,0.1,0.9,0.1,1.1,0.1c0.4,0,0.7,0,1.1-0.1c0.4,0,0.7-0.1,0.9-0.2
	c0.2-0.1,0.5-0.1,0.7-0.2c0.2-0.1,0.3-0.1,0.4-0.2l0.1-0.1v9c0,0-0.1,0-0.1,0.1c-0.1,0-0.2,0.1-0.4,0.2c-0.2,0.1-0.4,0.1-0.7,0.2
	c-0.2,0.1-0.5,0.1-0.9,0.2c-0.4,0-0.7,0.1-1.1,0.1c-0.4,0-0.7,0-1.1-0.1c-0.4-0.1-0.8-0.2-1.2-0.3l-1.1-0.4l-1.2-0.3
	c-0.2,0-0.6-0.1-1.1-0.1c-0.6,0-1.3,0.1-1.9,0.2v4.3c0,0.2-0.1,0.3-0.2,0.5c-0.1,0.1-0.3,0.2-0.4,0.2c-0.2,0-0.3-0.1-0.4-0.2
	c-0.1-0.1-0.2-0.3-0.2-0.5V1.6c0,0,0.1,0,0.1-0.1c0.1,0,0.2-0.1,0.4-0.2c0.2-0.1,0.4-0.1,0.7-0.2C3.4,1.1,3.7,1,4,1
	C4.4,0.9,4.7,0.9,5.1,0.9z"/>
</svg>
