<?xml version="1.0" standalone="no"?><!DOCTYPE svg PUBLIC "-//W3C//DTD SVG 1.1//EN" "http://www.w3.org/Graphics/SVG/1.1/DTD/svg11.dtd"><svg t="1579068634732" class="icon" viewBox="0 0 1024 1024" version="1.1" xmlns="http://www.w3.org/2000/svg" p-id="6888" width="20" height="20" xmlns:xlink="http://www.w3.org/1999/xlink"><defs><style type="text/css"></style></defs><path d="M884.174 926.219H140.226c-24.262 0-44-19.207-44-42.816V574.046c0-17.673 14.327-32 32-32 17.673 0 32 14.327 32 32v288.173h703.948V574.947c0-17.673 14.327-32 32-32s32 14.327 32 32v308.455c0 23.61-19.738 42.817-44 42.817z" fill="#ffffff" p-id="6889"></path><path d="M512.1 749.002c-17.673 0-32-14.327-32-32v-511.85c0-17.673 14.327-32 32-32 17.673 0 32 14.327 32 32v511.85c0 17.673-14.328 32-32 32z" fill="#ffffff" p-id="6890"></path><path d="M300.599 379.299c-8.075 0-16.153-3.036-22.38-9.13-12.63-12.361-12.849-32.622-0.488-45.252L489.23 108.808c12.361-12.63 32.621-12.849 45.252-0.488s12.85 32.622 0.488 45.252L323.471 369.681c-6.267 6.404-14.568 9.618-22.872 9.618z" fill="#ffffff" p-id="6891"></path><path d="M725.102 379.299c-8.306 0-16.604-3.213-22.872-9.618l-211.5-216.109c-12.361-12.631-12.143-32.891 0.488-45.252s32.891-12.143 45.252 0.488l211.5 216.109c12.361 12.631 12.143 32.891-0.488 45.252-6.226 6.093-14.306 9.13-22.38 9.13z" fill="#ffffff" p-id="6892"></path></svg>