<?xml version="1.0" standalone="no"?><!DOCTYPE svg PUBLIC "-//W3C//DTD SVG 1.1//EN" "http://www.w3.org/Graphics/SVG/1.1/DTD/svg11.dtd"><svg t="1579067116211" class="icon" viewBox="0 0 1024 1024" version="1.1" xmlns="http://www.w3.org/2000/svg" p-id="3222" width="18" height="18" xmlns:xlink="http://www.w3.org/1999/xlink"><defs><style type="text/css"></style></defs><path d="M512 138.5c3.1 0 4 2 4.5 2.9l91 194.8c12.5 26.7 37.3 45.3 66.4 49.8l207.3 31.8c0.9 0.1 3 0.5 4 3.4 1 3.1-0.6 4.8-1.2 5.4L731.1 584c-19.4 19.9-28.3 48.2-23.8 75.7L743 879.3c0.3 1.8 0 3-1 4.1-1 1.2-2.6 2-3.9 2-0.3 0-1 0-2.3-0.7L554.6 784.3c-13-7.2-27.8-11-42.6-11-14.9 0-29.6 3.8-42.6 11L288.3 884.8c-1.2 0.6-1.9 0.7-2.3 0.7-1.3 0-2.9-0.8-3.9-2s-1.3-2.4-1-4.1l35.7-219.7c4.5-27.5-4.4-55.8-23.8-75.7L140 426.6c-0.6-0.6-2.2-2.3-1.2-5.4 1-3 3.1-3.3 4-3.4L350.1 386c29.1-4.5 53.9-23.1 66.4-49.8l91-194.8c0.5-0.9 1.4-2.9 4.5-2.9m0-41.5c-16.9 0-33.7 9-42.1 26.9l-91 194.8c-6.6 14.1-19.7 24-35.1 26.3l-207.3 31.8c-37.4 5.7-52.7 51.6-26.3 78.8L263.1 613c10.3 10.6 15 25.5 12.6 40.1L240 872.8c-4.9 30.1 19 54.3 45.9 54.3 7.4 0 15.1-1.8 22.5-5.9l181.1-100.5c7-3.9 14.7-5.8 22.5-5.8 7.7 0 15.5 1.9 22.5 5.8l181.1 100.5c7.4 4.1 15 5.9 22.5 5.9 26.9 0 50.8-24.2 45.9-54.3L748.2 653c-2.4-14.6 2.3-29.5 12.6-40.1l152.9-157.4c26.4-27.2 11.2-73-26.3-78.8l-207.3-31.8c-15.3-2.4-28.5-12.2-35.1-26.3l-91-194.8C545.7 106 528.9 97 512 97z" p-id="3223" fill="#00d7c6"></path></svg>