<?xml version="1.0" standalone="no"?><!DOCTYPE svg PUBLIC "-//W3C//DTD SVG 1.1//EN" "http://www.w3.org/Graphics/SVG/1.1/DTD/svg11.dtd"><svg t="1578912982874" class="icon" viewBox="0 0 1024 1024" version="1.1" xmlns="http://www.w3.org/2000/svg" p-id="5067" xmlns:xlink="http://www.w3.org/1999/xlink" width="20" height="20"><defs><style type="text/css"></style></defs><path d="M923.4 339.2c-22.6-53.3-54.8-101.2-96-142.3-41.1-41.1-89-73.4-142.3-96-55.2-23.4-113.8-35.2-174.3-35.2s-119.1 11.8-174.3 35.2c-53.3 22.6-101.2 54.8-142.3 96-41.1 41.1-73.4 89-96 142.3C74.8 394.4 63 453.1 63 513.5s11.8 119.1 35.2 174.3c22.6 53.3 54.8 101.2 96 142.3 41.1 41.1 89 73.4 142.3 96 55.2 23.4 113.9 35.2 174.3 35.2 60.4 0 119.1-11.8 174.3-35.2 53.3-22.6 101.2-54.8 142.3-96 41.1-41.1 73.4-89 96-142.3 23.4-55.2 35.2-113.9 35.2-174.3 0-60.4-11.8-119.1-35.2-174.3zM510.8 880.4c-202.3 0-366.9-164.6-366.9-366.9s164.6-366.9 366.9-366.9 366.9 164.6 366.9 366.9-164.5 366.9-366.9 366.9z" p-id="5068" fill="#999999"></path><path d="M697.5 470.3H554.4V263.2c0-23.6-19.3-42.9-42.9-42.9-23.6 0-42.9 19.3-42.9 42.9v250c0 23.6 19.3 42.9 42.9 42.9h186c23.6 0 42.9-19.3 42.9-42.9-0.1-23.6-19.4-42.9-42.9-42.9z" p-id="5069" fill="#999999"></path></svg>