<?xml version="1.0" standalone="no"?><!DOCTYPE svg PUBLIC "-//W3C//DTD SVG 1.1//EN" "http://www.w3.org/Graphics/SVG/1.1/DTD/svg11.dtd"><svg t="1578659866834" class="icon" viewBox="0 0 1024 1024" version="1.1" xmlns="http://www.w3.org/2000/svg" p-id="2177" xmlns:xlink="http://www.w3.org/1999/xlink" width="32" height="32"><defs><style type="text/css"></style></defs><path d="M1015.968086 942.356701l-46.187857-250.814917c-2.339273-12.6112-8.397234-24.20626-17.471895-33.252269L319.514442 25.480273C307.66458 13.616085 291.559819 6.979958 274.82061 6.979958c-16.766839 0-32.857273 6.636127-44.707135 18.500315L25.484367 230.122685c-24.67084 24.686189-24.67084 64.687149 0 89.400967l632.822544 632.767286a62.965951 62.965951 0 0 0 33.237942 17.470872l250.815942 46.200136a62.997674 62.997674 0 0 0 11.469193 1.057073c16.61232 0 32.730383-6.53789 44.679506-18.500316a63.213591 63.213591 0 0 0 17.458592-56.162002z m-280.504042-28.757916l178.138834-178.15316 13.638598 74.070848-117.706584 117.707607-74.070848-13.625295zM70.178199 274.802191l46.15818-46.130552L563.707559 676.057145a20.939873 20.939873 0 0 0 14.893169 6.185874 20.974665 20.974665 0 0 0 14.907494-6.185874c8.228389-8.228389 8.228389-21.556925 0-29.786337l-447.386529-447.398809 49.287445-49.258792 92.824943 92.852572c4.114706 4.128009 9.510589 6.171547 14.906471 6.171548 5.38258 0 10.76516-2.043538 14.879866-6.171548 8.228389-8.242715 8.228389-21.585578 0-29.786337l-92.840292-92.866899 49.639461-49.625134 622.240556 622.240556-49.638438 49.626158L397.262022 291.907743c-8.229412-8.242715-21.586601-8.242715-29.81499 0-8.214062 8.229412-8.214062 21.557949 0 29.786337l450.175033 450.160707-49.272095 49.272095-95.600144-95.615494c-8.243738-8.242715-21.586601-8.242715-29.81499 0-8.228389 8.229412-8.228389 21.557949 0 29.786338l95.6421 95.61447-46.143854 46.131574L70.178199 274.802191z m789.657209 661.693024l76.6639-76.662877 17.33068 93.993556-93.99458-17.330679z" p-id="2178" fill="#8a8a8a"></path></svg>