<?xml version="1.0" standalone="no"?><!DOCTYPE svg PUBLIC "-//W3C//DTD SVG 1.1//EN" "http://www.w3.org/Graphics/SVG/1.1/DTD/svg11.dtd"><svg t="1579058705512" class="icon" viewBox="0 0 1024 1024" version="1.1" xmlns="http://www.w3.org/2000/svg" p-id="3657" xmlns:xlink="http://www.w3.org/1999/xlink" width="20" height="20"><defs><style type="text/css"></style></defs><path d="M762 12H262a83.42 83.42 0 0 0-83.33 83.33v833.34A83.42 83.42 0 0 0 262 1012h500a83.42 83.42 0 0 0 83.33-83.33V95.33A83.42 83.42 0 0 0 762 12zM234.22 95.33A27.8 27.8 0 0 1 262 67.56h500a27.8 27.8 0 0 1 27.78 27.78v638.88H234.22z m555.56 833.34A27.8 27.8 0 0 1 762 956.44H262a27.8 27.8 0 0 1-27.78-27.78V789.78h555.56z" p-id="3658" fill="#e6e6e6"></path><path d="M512 873.11m-55.56 0a55.56 55.56 0 1 0 111.12 0 55.56 55.56 0 1 0-111.12 0Z" p-id="3659" fill="#e6e6e6"></path></svg>