<?xml version="1.0" standalone="no"?><!DOCTYPE svg PUBLIC "-//W3C//DTD SVG 1.1//EN" "http://www.w3.org/Graphics/SVG/1.1/DTD/svg11.dtd"><svg t="1578659956812" class="icon" viewBox="0 0 1024 1024" version="1.1" xmlns="http://www.w3.org/2000/svg" p-id="7767" xmlns:xlink="http://www.w3.org/1999/xlink" width="32" height="32"><defs><style type="text/css"></style></defs><path d="M398.051147 0C178.278114 0 0.081233 178.196882 0.081233 397.969914 0.081233 617.742947 178.278114 795.939829 398.051147 795.939829c84.510082 0 162.886745-26.359654 227.311051-71.260025l0.04682-0.04682 295.153217 295.153217c5.477939 5.477939 14.186457 5.618399 19.804856 0l79.547163-79.547163c5.477939-5.477939 5.197019-14.561017-0.04682-19.804856l-295.106397-295.106397C769.661407 560.85666 796.021062 482.479996 796.021062 397.969914 796.021062 178.196882 617.82418 0 398.051147 0zM398.051147 702.299849C229.967383 702.299849 93.721213 566.053678 93.721213 397.969914 93.721213 229.886151 229.967383 93.63998 398.051147 93.63998 566.134911 93.63998 702.381082 229.886151 702.381082 397.969914 702.381082 566.053678 566.134911 702.299849 398.051147 702.299849z" p-id="7768" fill="#8a8a8a"></path></svg>