<?xml version="1.0" standalone="no"?><!DOCTYPE svg PUBLIC "-//W3C//DTD SVG 1.1//EN" "http://www.w3.org/Graphics/SVG/1.1/DTD/svg11.dtd"><svg t="1579059011708" class="icon" viewBox="0 0 1024 1024" version="1.1" xmlns="http://www.w3.org/2000/svg" p-id="4683" xmlns:xlink="http://www.w3.org/1999/xlink" width="20" height="20"><defs><style type="text/css"></style></defs><path d="M846.367347 820.244898H177.632653c-45.97551 0-83.591837-37.616327-83.591837-83.591837V287.346939c0-45.97551 37.616327-83.591837 83.591837-83.591837h668.734694c45.97551 0 83.591837 37.616327 83.591837 83.591837v449.306122c0 45.97551-37.616327 83.591837-83.591837 83.591837zM177.632653 245.55102c-22.987755 0-41.795918 18.808163-41.795918 41.795919v449.306122c0 22.987755 18.808163 41.795918 41.795918 41.795919h668.734694c22.987755 0 41.795918-18.808163 41.795918-41.795919V287.346939c0-22.987755-18.808163-41.795918-41.795918-41.795919H177.632653z" p-id="4684" fill="#e6e6e6"></path><path d="M512 610.742857c-21.420408 0-42.840816-8.359184-59.036735-24.555102L121.730612 254.955102c-8.359184-8.359184-8.359184-21.420408 0-29.779592 8.359184-8.359184 21.420408-8.359184 29.779592 0l331.232653 331.232653c16.195918 16.195918 42.840816 16.195918 59.036735 0l328.620408-328.620408c8.359184-8.359184 21.420408-8.359184 29.779592 0 8.359184 8.359184 8.359184 21.420408 0 29.779592l-328.620408 328.620408c-16.718367 16.718367-38.138776 24.555102-59.559184 24.555102z" p-id="4685" fill="#e6e6e6"></path></svg>