<?xml version="1.0" standalone="no"?><!DOCTYPE svg PUBLIC "-//W3C//DTD SVG 1.1//EN" "http://www.w3.org/Graphics/SVG/1.1/DTD/svg11.dtd"><svg class="icon" width="200px" height="200.00px" viewBox="0 0 1024 1024" version="1.1" xmlns="http://www.w3.org/2000/svg"><path fill="#00d7c6" d="M320 480h384v-64H320zM320 608h256v-64h-256zM320 736h256v-64h-256z"  /><path fill="#00d7c6" d="M832 160h-128V96H320v64H192c-19.2 0-32 12.8-32 32v704c0 19.2 12.8 32 32 32h640c19.2 0 32-12.8 32-32V192c0-19.2-12.8-32-32-32zM384 160h256v64h-256V160z m416 704H224V224h96v64h384V224h96v640z"  /></svg>