<?xml version="1.0" standalone="no"?><!DOCTYPE svg PUBLIC "-//W3C//DTD SVG 1.1//EN" "http://www.w3.org/Graphics/SVG/1.1/DTD/svg11.dtd"><svg class="icon" width="200px" height="200.00px" viewBox="0 0 1024 1024" version="1.1" xmlns="http://www.w3.org/2000/svg"><path fill="#00d7c6" d="M806.741333 648.746667A127.68 127.68 0 0 1 853.333333 640c32.789333 0 62.677333 12.330667 85.333334 32.597333V256.106667c0-65.941333-45.738667-100.16-108.757334-81.557334L256 344.106667v338.666666c0 11.733333-9.472 21.226667-21.333333 21.226667a21.034667 21.034667 0 0 1-13.482667-4.778667 85.44 85.44 0 0 0-7.850667-5.12V647.253333v46.805334A85.333333 85.333333 0 0 0 85.333333 768v-95.402667A127.530667 127.530667 0 0 1 170.666667 640c14.954667 0 29.312 2.56 42.666666 7.274667V182.058667A85.376 85.376 0 0 0 85.333333 256v512.192c0 65.173333 44.757333 97.877333 106.688 78.186667l614.72-197.632zM768 703.530667L205.248 886.933333C115.456 915.52 42.666667 862.186667 42.666667 768.213333V256a128 128 0 0 1 213.333333-95.402667v139.029334l561.834667-165.973334C908.138667 106.944 981.333333 161.578667 981.333333 256.085333V768a128 128 0 0 1-213.333333 95.402667v-159.872zM853.333333 853.333333a85.333333 85.333333 0 1 0 0-170.666666c-15.552 0-30.122667 0.64-42.666666 7.893333v151.36c12.544 7.253333 27.114667 11.413333 42.666666 11.413333z"  /></svg>