<?xml version="1.0" standalone="no"?><!DOCTYPE svg PUBLIC "-//W3C//DTD SVG 1.1//EN" "http://www.w3.org/Graphics/SVG/1.1/DTD/svg11.dtd"><svg class="icon" width="200px" height="200.00px" viewBox="0 0 1024 1024" version="1.1" xmlns="http://www.w3.org/2000/svg"><path fill="#00d7c6" d="M896 288H128a42.666667 42.666667 0 0 0-42.666667 42.666667v554.666666a42.666667 42.666667 0 0 0 42.666667 42.666667h768a42.666667 42.666667 0 0 0 42.666667-42.666667v-554.666666a42.666667 42.666667 0 0 0-42.666667-42.666667z m0 597.333333H128v-362.666666h170.666667v106.666666h42.666666v-106.666666h341.333334v106.666666h42.666666v-106.666666h170.666667z m0-405.333333H128v-149.333333h768zM298.666667 138.666667h426.666666v106.666666h42.666667v-106.666666a42.666667 42.666667 0 0 0-42.666667-42.666667H298.666667a42.666667 42.666667 0 0 0-42.666667 42.666667v106.666666h42.666667z"  /></svg>